# xmcd
#
# Track frame offsets:
#	150
#	11392
#	28923
#	77174
#	102268
#	116990
#	131563
#	150487
#	172720
#	229390
#	267841
#
# Disc length: 4407 seconds
#
# Revision: 1
# Processed by: cddbd v1.4PL0 Copyright (c) Steve Scherf et al.
# Submitted via: EasyCDDAExtractor 5.0.6
#
DISCID=8511350b
DTITLE=Stevie Ray Vaughan - A Good Texan - Live
DYEAR=1984
DGENRE=Blues
TTITLE0=Scuttle Buttin
TTITLE1=Testify
TTITLE2=Voodoo Chile (Slight Return)
TTITLE3=The Things That I Used To Do
TTITLE4=Honey Bee
TTITLE5=Love Struck Baby
TTITLE6=Cold Shot
TTITLE7=Couldn't Stand The Weather
TTITLE8=Tin Pin Alley
TTITLE9=Pride And Joy - Texas Flood
TTITLE10=Third Stone From The Sun
EXTD=
EXTT0=
EXTT1=
EXTT2=
EXTT3=
EXTT4=
EXTT5=
EXTT6=
EXTT7=
EXTT8=
EXTT9=
EXTT10=
PLAYORDER=
